<?xml version="1.0" encoding="UTF-8" standalone="no"?>
<svg
   xmlns:dc="http://purl.org/dc/elements/1.1/"
   xmlns:cc="http://creativecommons.org/ns#"
   xmlns:rdf="http://www.w3.org/1999/02/22-rdf-syntax-ns#"
   xmlns:svg="http://www.w3.org/2000/svg"
   xmlns="http://www.w3.org/2000/svg"
   version="1.1"
   id="Camada_1"
   x="0px"
   y="0px"
   viewBox="0 0 204.10001 189.0697"
   xml:space="preserve"
   width="204.10001"
   height="189.0697"><metadata
   id="metadata29"><rdf:RDF><cc:Work
       rdf:about=""><dc:format>image/svg+xml</dc:format><dc:type
         rdf:resource="http://purl.org/dc/dcmitype/StillImage" /><dc:title></dc:title></cc:Work></rdf:RDF></metadata><defs
   id="defs27">
	
	
</defs>
<style
   type="text/css"
   id="style2">
	.st0{fill:#232526;}
</style>
<rect
   y="16.572428"
   x="65.43"
   height="83.841042"
   width="73.360909"
   id="rect823"
   style="opacity:1;fill:#ffffff;fill-opacity:1;stroke:none;stroke-width:16.06666756;stroke-linecap:round;stroke-linejoin:round;stroke-miterlimit:4;stroke-dasharray:none;stroke-dashoffset:10.01574802" /><g
   id="g4557"
   transform="translate(-72.95,-6.5)"><g
     transform="translate(106.1)"
     id="g8">
		<path
   class="st0"
   d="M 85.1,41.2 C 70.8,50.3 59.1,62.7 50.9,77.5 V 49.8 c 0,-8.1 6.6,-14.7 14.7,-14.7 h 7.5 c 4.8,0 9.2,2.3 12,6.1 z"
   id="path4"
   style="fill:#d40000" />
		<path
   class="st0"
   d="m 68.9,6.5 c -32.1,0 -58.1,26 -58.1,58.1 0,32.1 26,58.1 58.1,58.1 32.1,0 58.1,-26 58.1,-58.1 C 127,32.5 101,6.5 68.9,6.5 Z M 41.5,49.8 c 0,-13.3 10.8,-24.1 24.1,-24.1 h 7.5 c 8,0 15.7,4.1 20.1,10.9 2.9,-1.5 5.9,-2.8 8.9,-4 l 1.5,-0.6 v 10 l -0.7,0.3 c -2.1,0.9 -4.2,1.9 -6.2,2.9 0.3,1.5 0.4,3 0.4,4.6 v 53.5 H 87.8 V 50.6 C 83,53.8 78.5,57.6 74.4,61.7 63,73.1 54.9,87.2 50.8,102.6 v 0.1 l -0.3,0.7 h -9 z"
   id="path6"
   style="fill:#d40000" />
	</g><g
     transform="translate(-60.95,97.8697)"
     id="g20">
		<g
   id="g18">
			<path
   class="st0"
   d="m 159.5,31.4 h 12.8 l 25.5,66.3 H 184.7 L 179.5,84 H 152.4 L 147,97.7 H 133.9 Z M 166,49 157.1,71.8 h 17.8 z"
   id="path10"
   style="fill:#232526" />
			<path
   class="st0"
   d="m 198.5,31.4 h 36.7 V 43.8 H 223.1 V 97.7 H 210.3 V 43.8 h -11.8 z"
   id="path12"
   style="fill:#232526" />
			<path
   class="st0"
   d="m 241.3,31.4 h 12.6 v 54.3 h 18.4 v 12 H 241.2 V 31.4 Z"
   id="path14"
   style="fill:#232526" />
			<path
   class="st0"
   d="m 299.6,31.4 h 12.8 L 338,97.7 H 324.9 L 319.7,84 h -27.1 l -5.4,13.7 H 274 Z m 6.5,17.6 -8.9,22.8 H 315 Z"
   id="path16"
   style="fill:#232526" />
		</g>
	</g></g>
</svg>